<svg id="레이어_1_이미지" data-name="레이어 1 이미지" xmlns="http://www.w3.org/2000/svg" viewBox="0 0 900 900"><defs><style>.cls-1{fill:#020202;}.cls-2{font-size:33px;font-family:Ubuntu-Regular, Ubuntu;letter-spacing:0em;}.cls-3{letter-spacing:0.01em;}.cls-4{letter-spacing:0em;}</style></defs><path class="cls-1" d="M606,581.77q-40,0-80,0c-12.93,0-20.4-10.82-15.65-22.83,6.7-16.93,11.78-34.34,12.23-52.58.48-19.15-5.64-36.48-19-50.49-30.38-31.78-77-31.81-107.2.13-14,14.83-19.94,33-18.71,53.46,1,17.11,5.74,33.29,11.83,49.15,4.77,12.45-2.4,23.16-15.65,23.16q-79,0-158,.08c-5.86,0-11-.72-14.21-6.19s-1.29-10.44,1.6-15.43q48.35-83.5,96.58-167.07C345.8,313.41,392,233.78,437.64,153.79c5.84-10.24,18.75-10.21,24.68.11Q579.22,357.6,697,560.8c4.09,7.08,4.37,12.73-.35,16.8a17.11,17.11,0,0,1-10.15,4C659.64,581.91,632.81,581.77,606,581.77ZM404.81,352a45.14,45.14,0,1,0,45-45.17A45.2,45.2,0,0,0,404.81,352Z"/><path class="cls-1" d="M157.22,652.62a34.73,34.73,0,0,1,11.51,1.64,17.83,17.83,0,0,1,7.38,4.68,17.49,17.49,0,0,1,3.92,7.42,37.84,37.84,0,0,1,1.15,9.7v33.79q-3.35.76-9.31,1.8a86.1,86.1,0,0,1-14.44,1,44.29,44.29,0,0,1-9.68-1,20.49,20.49,0,0,1-7.48-3.21,14.54,14.54,0,0,1-4.81-5.84,20.76,20.76,0,0,1-1.68-8.83,17.31,17.31,0,0,1,1.94-8.5,15.22,15.22,0,0,1,5.18-5.56,22.68,22.68,0,0,1,7.43-3,39.88,39.88,0,0,1,8.68-.93,47.85,47.85,0,0,1,5.39.27,23.07,23.07,0,0,1,3.82.71v-1.53a9.16,9.16,0,0,0-2.41-6.64c-1.6-1.68-4.39-2.51-8.37-2.51a51.19,51.19,0,0,0-7.85.6,32.25,32.25,0,0,0-6.69,1.69l-2-13.08c.9-.29,2-.6,3.4-.93s2.84-.62,4.45-.87,3.29-.47,5.07-.66S155.41,652.62,157.22,652.62Zm1.26,47.53c1.53,0,3,0,4.39-.11a27.69,27.69,0,0,0,3.35-.33V687.39a28.11,28.11,0,0,0-2.83-.43,29.05,29.05,0,0,0-3.45-.22,30,30,0,0,0-4.13.27,10.36,10.36,0,0,0-3.4,1,5.85,5.85,0,0,0-2.3,2.07,5.93,5.93,0,0,0-.84,3.27q0,3.81,2.46,5.28A13,13,0,0,0,158.48,700.15Z"/><path class="cls-1" d="M243.76,704.29q0,14.06-6.86,20.87T215.71,732a56,56,0,0,1-10-.92,61.6,61.6,0,0,1-9.31-2.45L199.08,715a41.59,41.59,0,0,0,16.84,3.27q6.71,0,9.47-3a11.23,11.23,0,0,0,2.78-7.85v-2.07a24.49,24.49,0,0,1-5.18,1.8,26.51,26.51,0,0,1-5.81.6q-11.42,0-17.48-7T193.64,681a33.39,33.39,0,0,1,1.88-11.5,23.87,23.87,0,0,1,14.33-14.6,32.58,32.58,0,0,1,11.83-2q2.82,0,5.81.27c2,.19,3.95.42,5.91.71s3.82.64,5.6,1,3.36.81,4.76,1.25ZM209.54,681q0,13.63,10.57,13.63a14.93,14.93,0,0,0,4.5-.66,16.7,16.7,0,0,0,3.56-1.52V666.47c-.77-.15-1.68-.28-2.72-.39a35.79,35.79,0,0,0-3.67-.16q-6.17,0-9.21,4.25A18.15,18.15,0,0,0,209.54,681Z"/><path class="cls-1" d="M310.83,682.71A38.86,38.86,0,0,1,309,695.08a27.22,27.22,0,0,1-5.44,9.59,24.6,24.6,0,0,1-8.53,6.16,29.32,29.32,0,0,1-22.19,0,24.47,24.47,0,0,1-8.52-6.16,28.22,28.22,0,0,1-5.55-9.59,36.73,36.73,0,0,1-2-12.37,35.54,35.54,0,0,1,2-12.32,28.12,28.12,0,0,1,5.65-9.48A25.49,25.49,0,0,1,273,654.8a28.26,28.26,0,0,1,21.77,0,25,25,0,0,1,8.53,6.11,27.75,27.75,0,0,1,5.54,9.48A36.27,36.27,0,0,1,310.83,682.71Zm-15.9,0q0-7.53-2.88-11.83a9.31,9.31,0,0,0-8.22-4.31,9.42,9.42,0,0,0-8.26,4.31q-2.94,4.3-2.93,11.83t2.93,11.93a9.35,9.35,0,0,0,8.26,4.42,9.24,9.24,0,0,0,8.22-4.42Q294.93,690.23,294.93,682.71Z"/><path class="cls-1" d="M357,668.54q-2.1-.56-4.92-1.15a29.19,29.19,0,0,0-6.07-.6,27.32,27.32,0,0,0-3.51.27,21.7,21.7,0,0,0-3.08.6v43.82H323.81V657.2a90.42,90.42,0,0,1,9.88-2.89A54.77,54.77,0,0,1,346.41,653c.84,0,1.85,0,3,.16s2.37.26,3.56.44,2.37.4,3.56.65a16.84,16.84,0,0,1,3,.93Z"/><path class="cls-1" d="M387.64,652.62a34.77,34.77,0,0,1,11.51,1.64,17.72,17.72,0,0,1,7.37,4.68,17.51,17.51,0,0,1,3.93,7.42,37.84,37.84,0,0,1,1.15,9.7v33.79c-2.23.51-5.34,1.11-9.31,1.8a86.1,86.1,0,0,1-14.44,1,44.22,44.22,0,0,1-9.68-1,20.41,20.41,0,0,1-7.48-3.21,14.57,14.57,0,0,1-4.82-5.84,20.77,20.77,0,0,1-1.67-8.83,17.31,17.31,0,0,1,1.93-8.5,15.31,15.31,0,0,1,5.18-5.56,22.68,22.68,0,0,1,7.43-3,40,40,0,0,1,8.69-.93,47.85,47.85,0,0,1,5.39.27,23.07,23.07,0,0,1,3.82.71v-1.53a9.2,9.2,0,0,0-2.41-6.64c-1.61-1.68-4.4-2.51-8.37-2.51a51.19,51.19,0,0,0-7.85.6,32.52,32.52,0,0,0-6.7,1.69l-2-13.08c.91-.29,2.05-.6,3.41-.93s2.84-.62,4.44-.87,3.3-.47,5.08-.66S385.82,652.62,387.64,652.62Zm1.25,47.53c1.54,0,3,0,4.4-.11a27.9,27.9,0,0,0,3.35-.33V687.39a28.11,28.11,0,0,0-2.83-.43,29.18,29.18,0,0,0-3.45-.22,30,30,0,0,0-4.14.27,10.43,10.43,0,0,0-3.4,1,6,6,0,0,0-2.3,2.07,5.93,5.93,0,0,0-.84,3.27q0,3.81,2.46,5.28A13,13,0,0,0,388.89,700.15Z"/><path class="cls-1" d="M422,671.59H452.3V686.3H422Z"/><path class="cls-1" d="M479,699.82q4.29,0,6.06-.87a3.39,3.39,0,0,0,1.78-3.38c0-1.31-.76-2.45-2.3-3.44a43.23,43.23,0,0,0-7-3.32,67.71,67.71,0,0,1-6.64-2.94,19.84,19.84,0,0,1-5.08-3.65,14.84,14.84,0,0,1-3.24-5.07,19.4,19.4,0,0,1-1.15-7.09q0-8.05,5.75-12.75t15.8-4.69a48.55,48.55,0,0,1,9.63.93,43.05,43.05,0,0,1,7.32,2l-2.72,12.64a54,54,0,0,0-5.91-1.74,30.84,30.84,0,0,0-7.17-.77q-7.32,0-7.32,4.25a4.55,4.55,0,0,0,.31,1.75,3.66,3.66,0,0,0,1.26,1.47,18.1,18.1,0,0,0,2.56,1.53c1.08.55,2.46,1.16,4.13,1.81a61.32,61.32,0,0,1,8.48,3.91,20.43,20.43,0,0,1,5.29,4.15,13,13,0,0,1,2.72,4.95,22.9,22.9,0,0,1,.78,6.3q0,8.49-6.12,12.84T478.88,713a47.23,47.23,0,0,1-18.94-3.49l2.62-13.19a48.86,48.86,0,0,0,8.16,2.56A38.06,38.06,0,0,0,479,699.82Z"/><path class="cls-1" d="M514.35,639.87l15.59-2.62v16.9h18.73v13.51H529.94v20.17a16.62,16.62,0,0,0,1.73,8.18q1.73,3,7,3a29.32,29.32,0,0,0,5.18-.49,25.25,25.25,0,0,0,4.86-1.37l2.2,12.65a42.42,42.42,0,0,1-6.28,2.07,35.18,35.18,0,0,1-8.47.87,26.87,26.87,0,0,1-10.57-1.8,16.71,16.71,0,0,1-6.7-5,19,19,0,0,1-3.5-7.8,47.32,47.32,0,0,1-1-10.13Z"/><path class="cls-1" d="M580,652.62a34.73,34.73,0,0,1,11.51,1.64,17.83,17.83,0,0,1,7.38,4.68,17.49,17.49,0,0,1,3.92,7.42,37.84,37.84,0,0,1,1.15,9.7v33.79q-3.34.76-9.31,1.8a86,86,0,0,1-14.44,1,44.29,44.29,0,0,1-9.68-1,20.49,20.49,0,0,1-7.48-3.21,14.54,14.54,0,0,1-4.81-5.84,20.76,20.76,0,0,1-1.68-8.83,17.31,17.31,0,0,1,1.94-8.5,15.31,15.31,0,0,1,5.18-5.56,22.68,22.68,0,0,1,7.43-3,39.88,39.88,0,0,1,8.68-.93,47.72,47.72,0,0,1,5.39.27,23.07,23.07,0,0,1,3.82.71v-1.53a9.16,9.16,0,0,0-2.41-6.64c-1.6-1.68-4.39-2.51-8.37-2.51a51.29,51.29,0,0,0-7.85.6,32.25,32.25,0,0,0-6.69,1.69l-2-13.08c.91-.29,2-.6,3.4-.93s2.84-.62,4.45-.87,3.29-.47,5.07-.66S578.15,652.62,580,652.62Zm1.26,47.53c1.53,0,3,0,4.39-.11a27.69,27.69,0,0,0,3.35-.33V687.39a28.29,28.29,0,0,0-2.82-.43,29.34,29.34,0,0,0-3.46-.22,30,30,0,0,0-4.13.27,10.36,10.36,0,0,0-3.4,1,5.85,5.85,0,0,0-2.3,2.07,5.93,5.93,0,0,0-.84,3.27q0,3.81,2.46,5.28A13,13,0,0,0,581.22,700.15Z"/><path class="cls-1" d="M618.47,639.87l15.59-2.62v16.9h18.73v13.51H634.06v20.17a16.62,16.62,0,0,0,1.73,8.18q1.73,3,7,3a29.13,29.13,0,0,0,5.17-.49,25.35,25.35,0,0,0,4.87-1.37l2.2,12.65a43.22,43.22,0,0,1-6.28,2.07,35.27,35.27,0,0,1-8.48.87,26.82,26.82,0,0,1-10.56-1.8,16.57,16.57,0,0,1-6.7-5,18.87,18.87,0,0,1-3.51-7.8,48,48,0,0,1-1-10.13Z"/><path class="cls-1" d="M661.69,683.25a36.15,36.15,0,0,1,2.25-13.35,28.51,28.51,0,0,1,5.91-9.54,24.63,24.63,0,0,1,8.42-5.78,25.6,25.6,0,0,1,9.78-2q11.73,0,18.53,7.47t6.8,22c0,1,0,2-.11,3.11s-.14,2.12-.21,3H677.7a10.83,10.83,0,0,0,4.49,8q4,3,10.68,2.95a43.63,43.63,0,0,0,8.42-.82,30.92,30.92,0,0,0,6.75-2l2.09,13.19a20.77,20.77,0,0,1-3.34,1.31,40.29,40.29,0,0,1-4.66,1.14q-2.57.5-5.5.82a52.14,52.14,0,0,1-5.85.33,33.38,33.38,0,0,1-12.93-2.29A24.41,24.41,0,0,1,663.41,695,38.76,38.76,0,0,1,661.69,683.25ZM698.31,677a17.51,17.51,0,0,0-.68-4,10.21,10.21,0,0,0-1.78-3.49,9.43,9.43,0,0,0-3-2.51,9.64,9.64,0,0,0-4.56-1,10.09,10.09,0,0,0-4.5.93,9.29,9.29,0,0,0-3.14,2.45,11.22,11.22,0,0,0-1.93,3.54,22.77,22.77,0,0,0-1,4.09Z"/><path class="cls-1" d="M742.15,699.82c2.86,0,4.89-.29,6.07-.87a3.39,3.39,0,0,0,1.78-3.38c0-1.31-.77-2.45-2.3-3.44a43.66,43.66,0,0,0-7-3.32,69,69,0,0,1-6.65-2.94,19.61,19.61,0,0,1-5.07-3.65,14.86,14.86,0,0,1-3.25-5.07,19.61,19.61,0,0,1-1.15-7.09q0-8.05,5.76-12.75t15.8-4.69a48.55,48.55,0,0,1,9.63.93,43.05,43.05,0,0,1,7.32,2l-2.72,12.64a54.66,54.66,0,0,0-5.91-1.74,30.84,30.84,0,0,0-7.17-.77Q740,665.7,740,670a4.55,4.55,0,0,0,.31,1.75,3.66,3.66,0,0,0,1.26,1.47,17.54,17.54,0,0,0,2.56,1.53c1.08.55,2.46,1.16,4.13,1.81a61.88,61.88,0,0,1,8.48,3.91,20.2,20.2,0,0,1,5.28,4.15,12.91,12.91,0,0,1,2.72,4.95,22.5,22.5,0,0,1,.79,6.3q0,8.49-6.12,12.84T742.05,713a47.88,47.88,0,0,1-12.19-1.31,47.39,47.39,0,0,1-6.75-2.18l2.61-13.19a49.27,49.27,0,0,0,8.17,2.56A38,38,0,0,0,742.15,699.82Z"/><text class="cls-2" transform="translate(141.57 782.66) scale(0.97 1)">c<tspan class="cls-3" x="15.21" y="0">ommunity for you </tspan><tspan class="cls-4" x="295.08" y="0">t</tspan><tspan class="cls-3" x="308.18" y="0">o ask, learn and share</tspan></text></svg>